<svg width="1440" height="725" viewBox="0 0 1440 725" fill="none" xmlns="http://www.w3.org/2000/svg">
<path d="M944.519 110.137C735.031 -57.8928 548.506 45.6256 559.459 157.645C579.411 361.682 692.635 536.713 882.172 536.713C1071.71 536.713 1025.82 690.24 1166.97 720.745C1308.13 751.251 1338.06 610.226 1315.11 536.713C1292.17 463.199 1350.53 398.688 1454.27 424.693C1558.02 450.697 1757.61 463.451 1734.09 208.654C1711.15 -39.8898 1526.1 -25.8873 1437.31 44.6251C1359.04 106.792 1206.38 320.174 944.519 110.137Z" fill="#F0EFEF" fill-opacity="0.6"/>
<path d="M50.4379 374C37.4379 309.5 43.9379 99 -1.06209 46C-27.5621 203.833 -54.3621 525.6 50.4379 550C181.438 580.5 63.4379 438.5 50.4379 374Z" fill="#ECECEC" fill-opacity="0.62"/>
</svg>
