<svg width="1761" height="725" viewBox="0 0 1761 725" fill="none" xmlns="http://www.w3.org/2000/svg">
<path d="M969.519 110.137C760.031 -57.8928 573.506 45.6256 584.459 157.645C604.411 361.682 717.635 536.713 907.172 536.713C1096.71 536.713 1050.82 690.24 1191.97 720.745C1333.13 751.251 1363.06 610.226 1340.11 536.713C1317.17 463.199 1375.53 398.688 1479.27 424.693C1583.02 450.697 1782.61 463.451 1759.09 208.654C1736.15 -39.8898 1551.1 -25.8873 1462.31 44.6251C1384.04 106.792 1231.38 320.174 969.519 110.137Z" fill="#F0EFEF" fill-opacity="0.6"/>
<path d="M75.4379 374C62.4379 309.5 68.9379 99 23.9379 46C-2.56209 203.833 -29.3621 525.6 75.4379 550C206.438 580.5 88.4379 438.5 75.4379 374Z" fill="#ECECEC" fill-opacity="0.62"/>
</svg>
