<svg width="1761" height="725" viewBox="0 0 1761 725" fill="none" xmlns="http://www.w3.org/2000/svg">
<path d="M791.481 614.863C1000.97 782.893 1187.49 679.374 1176.54 567.355C1156.59 363.318 1043.37 188.287 853.828 188.287C664.291 188.287 710.181 34.7603 569.026 4.25488C427.871 -26.2505 397.944 114.774 420.888 188.287C443.832 261.801 385.474 326.312 281.727 300.307C177.981 274.303 -21.6119 261.549 1.9093 516.346C24.8533 764.89 209.903 750.887 298.686 680.375C376.961 618.208 529.62 404.826 791.481 614.863Z" fill="#F0EFEF" fill-opacity="0.6"/>
<path d="M1685.56 351C1698.56 415.5 1692.06 626 1737.06 679C1763.56 521.167 1790.36 199.4 1685.56 175C1554.56 144.5 1672.56 286.5 1685.56 351Z" fill="#ECECEC" fill-opacity="0.62"/>
</svg>
